<?xml version="1.0" encoding="UTF-8" standalone="no"?>
<svg
   xmlns:dc="http://purl.org/dc/elements/1.1/"
   xmlns:cc="http://creativecommons.org/ns#"
   xmlns:rdf="http://www.w3.org/1999/02/22-rdf-syntax-ns#"
   xmlns:svg="http://www.w3.org/2000/svg"
   xmlns="http://www.w3.org/2000/svg"
   xmlns:sodipodi="http://sodipodi.sourceforge.net/DTD/sodipodi-0.dtd"
   xmlns:inkscape="http://www.inkscape.org/namespaces/inkscape"
   width="508mm"
   height="285.75mm"
   viewBox="0 0 508 285.75"
   version="1.1"
   id="svg8"
   inkscape:version="1.0.1 (3bc2e813f5, 2020-09-07)"
   sodipodi:docname="Banana.svg">
  <defs
     id="defs2" />
  <sodipodi:namedview
     id="base"
     pagecolor="#ffffff"
     bordercolor="#666666"
     borderopacity="1.0"
     inkscape:pageopacity="0.0"
     inkscape:pageshadow="2"
     inkscape:zoom="0.0875"
     inkscape:cx="3302.1703"
     inkscape:cy="-832.27471"
     inkscape:document-units="mm"
     inkscape:current-layer="layer1"
     inkscape:document-rotation="0"
     showgrid="false"
     inkscape:window-width="1920"
     inkscape:window-height="1017"
     inkscape:window-x="-8"
     inkscape:window-y="-8"
     inkscape:window-maximized="1" />
  <metadata
     id="metadata5">
    <rdf:RDF>
      <cc:Work
         rdf:about="">
        <dc:format>image/svg+xml</dc:format>
        <dc:type
           rdf:resource="http://purl.org/dc/dcmitype/StillImage" />
        <dc:title></dc:title>
      </cc:Work>
    </rdf:RDF>
  </metadata>
  <g
     inkscape:label="Слой 1"
     inkscape:groupmode="layer"
     id="layer1"
     transform="translate(586.61897,208.64308)">
    <path
       id="rect848"
       style="fill:#ffffff;fill-opacity:1;stroke:none;stroke-width:1.10522"
       d="m -2217.1426,-788.57227 v 1080 h 1920.00002 v -1080 z m 1203.334,203.86329 c 9.8729,0 18.43447,6.82064 20.64258,16.44336 2.5999,11.33306 -1.63669,67.53102 -2.63086,78.25781 0.41435,1.36751 0.80383,2.92288 1.1836,4.72851 1.6786,1.08424 4.17579,2.50556 6.16016,3.63477 24.44931,13.90651 69.95839,39.79233 69.95703,153.75586 0,63.44586 -4.14695,137.6167 -34.91211,206.6914 -33.00639,74.110504 -91.2319,130.9309973 -178.002,173.707036 -54.7167,26.975134 -122.452,40.631512 -201.4394,40.632812 -80.4382,0 -177.4363,-19.262214 -224.4922,-84.3085936 -32.3656,-44.7379374 -37.6399,-70.9878114 -38.1348,-73.8339844 -0.9465,-5.447456 0.2736,-11.050199 3.4004,-15.609375 l 27.6602,-40.328125 c 4.4056,-6.4244 11.9862,-9.91537 19.7305,-9.08008 1.9843,0.21317 199.6516,20.83988 277.8261,-18.24804 59.2084,-29.60419 130.1923,-112.09424 146.1309,-223.25 8.5279,-59.47448 19.1149,-75.85511 29.25,-87.30469 -0.3191,-10.9968 -8.938,-55.2683 -16.4121,-76.41211 -1.9527,-5.50175 -1.5607,-11.5958 1.1054,-16.78906 12.6808,-24.69691 68.1169,-32.6875 92.9766,-32.6875 z"
       transform="scale(0.26458333)"
       sodipodi:nodetypes="cccccsccccccccccccccscccs" />
  </g>
</svg>
